<svg width="250" height="100" viewBox="0 0 250 100" fill="none" xmlns="http://www.w3.org/2000/svg">
<g clip-path="url(#clip0_508_1892)">
<path fill-rule="evenodd" clip-rule="evenodd" d="M63.9263 52.3142C62.9866 55.6571 59.9157 58.108 56.2724 58.108C51.8818 58.108 48.3226 54.5489 48.3226 50.1583C48.3226 45.7678 51.8818 42.2086 56.2724 42.2086C58.7365 42.2086 60.9387 43.3297 62.3969 45.0897L64.0578 43.7151C62.2042 41.4779 59.4047 40.0527 56.2724 40.0527C50.6912 40.0527 46.1667 44.5772 46.1667 50.1583C46.1667 55.7394 50.6912 60.2639 56.2724 60.2639C59.2724 60.2639 61.9671 58.9567 63.8178 56.8807V59.8597H66.3779V55.009V54.6048L65.6656 53.8924L64.0874 52.3142H66.1475H66.3779V50.1583H64.2221H56.1376V52.3142H63.9263ZM77.6314 40.457H69.0754V59.8597H71.6114V54.725L69.2075 52.3142H75.2709L82.0753 59.8597H85.1942L78.1067 52.1266H78.4402C82.0911 51.962 84.7116 49.6497 84.7116 46.3471C84.7116 42.7693 81.897 40.457 77.6314 40.457ZM82.1756 46.3471C82.1756 48.6325 80.446 50.1583 77.6314 50.1583H71.6114V42.6587H77.6314C80.4487 42.6587 82.1756 44.0617 82.1756 46.3471ZM93.0531 40.457H96.5081L102.193 55.5102H89.7401L88.0686 59.8597H85.646L93.0531 40.457ZM102.195 55.5147L102.193 55.5102H102.2L102.195 55.5147ZM102.195 55.5147L103.836 59.8597H101.413L100.373 57.1507L102.195 55.5147ZM99.0154 53.4488L94.8912 42.6587H94.6399L90.4884 53.4488H99.0127H99.0154ZM161.992 40.457H158.537L151.13 59.8597H153.553L155.225 55.5102H167.678L167.68 55.5147L165.855 57.1453L166.897 59.8597H169.32L167.68 55.5147L167.684 55.5102H167.678L161.992 40.457ZM160.376 42.6587L164.499 53.4488H164.497H155.973L160.124 42.6587H160.376ZM102.956 40.4572L100.333 40.457L105.89 50.1586H108.509L102.956 40.4572ZM117.041 40.457L114.417 40.4572L107.406 52.7145V59.859L109.968 59.8599V52.8097L117.041 40.457ZM187.107 49.1235V57.7512H198.29V59.8597H184.55V52.5315V50.8896V40.457H198.424V42.6128H187.107V49.0804H189.464H194.991V51.2362H189.039L187.107 49.1235ZM202.059 43.017C202.929 43.017 203.545 42.4022 203.545 41.5312C203.545 40.6639 202.929 40.0527 202.059 40.0527C201.196 40.0527 200.581 40.6785 200.581 41.5312C200.581 42.4022 201.196 43.017 202.059 43.017ZM202.063 42.8121C201.326 42.8121 200.804 42.2814 200.804 41.5312C200.804 40.7993 201.326 40.2613 202.063 40.2613C202.8 40.2613 203.321 40.7993 203.321 41.5312C203.321 42.2814 202.8 42.8121 202.063 42.8121ZM201.457 42.4242H201.688V41.6996H201.966L202.508 42.4242H202.804L202.228 41.6923H202.239C202.569 41.6923 202.819 41.4727 202.819 41.1653C202.819 40.8432 202.569 40.609 202.239 40.609H201.457V42.4242ZM201.688 41.502V40.8139H202.207C202.418 40.8139 202.588 40.953 202.588 41.1616C202.588 41.3702 202.426 41.502 202.207 41.502H201.688ZM119.834 45.5405C119.834 48.0286 122.288 48.4852 125.003 48.913H125.006C128.347 49.4746 132.132 50.2253 132.132 54.5084C132.132 58.041 129.496 60.2639 124.98 60.2639C120.162 60.2639 117.191 57.6788 117.175 53.4953V53.4665V53.464V52.3142H119.522V53.464C119.547 56.3823 121.559 58.1223 125.003 58.1223C128.004 58.1223 129.752 56.7838 129.752 54.6685C129.752 52.0729 127.193 51.6425 124.427 51.1885C121.111 50.653 117.457 49.7712 117.457 45.6744C117.457 42.2757 119.911 40.0527 124.427 40.0527C128.943 40.0527 131.684 42.6658 131.709 46.6551H129.411C129.411 43.9781 127.585 42.1943 124.427 42.1943C121.451 42.1943 119.834 43.5066 119.834 45.5405ZM148.899 55.1416C147.665 56.9312 145.525 58.12 143.216 58.12C138.974 58.12 135.907 54.7742 135.907 50.1426C135.907 45.511 138.948 42.1914 143.216 42.1914C145.51 42.1914 147.613 43.3539 148.831 45.1436C148.931 45.0548 149.507 44.4998 149.955 44.069L149.955 44.0683L149.957 44.0664C150.235 43.7983 150.463 43.5789 150.495 43.5507C148.802 41.4147 146.13 40.0527 143.216 40.0527C137.562 40.0527 133.479 44.2829 133.479 50.1452C133.453 56.0076 137.562 60.2639 143.216 60.2639C146.182 60.2639 148.909 58.8994 150.591 56.7739C150.54 56.7194 150.067 56.266 149.635 55.8501L149.633 55.8494C149.273 55.5032 148.939 55.1832 148.899 55.1416ZM173.2 40.457H170.802V59.8597H183.073V57.7039H171.072L173.2 55.6153V40.457Z" fill="white"/>
</g>
<defs>
<clipPath id="clip0_508_1892">
<rect width="158" height="21.285" fill="white" transform="translate(46 39.3574)"/>
</clipPath>
</defs>
</svg>
